<svg xmlns="http://www.w3.org/2000/svg" version="1.1" xmlns:xlink="http://www.w3.org/1999/xlink" width="512" height="512" x="0" y="0" viewBox="0 0 431.7 431.7" style="enable-background:new 0 0 512 512" xml:space="preserve" class=""><g><path d="M254.6 184.85h-13.3c-1.1-4.6-3-9-5.6-13h18.9c5.6 0 10.1-4.5 10.1-10s-4.5-10-10-10h-77.5c-5.5 0-10 4.5-10 10s4.5 10 10 10h22.2c8.9-.2 17.2 4.9 21 13h-43.2c-5.5 0-10 4.5-10 10s4.5 10 10 10h43.2c-1.2 2.3-2.8 4.4-4.5 6.3-4.4 4.3-10.3 6.7-16.4 6.7h-22.2c-5.6.1-10.1 4.7-10 10.3 0 2.7 1.2 5.3 3.1 7.2l55.4 52.5c3.9 3.9 10.3 3.8 14.1-.1 3.9-3.9 3.8-10.3-.1-14.1l-.3-.3-37.3-35.3c10.5-.7 20.3-5.1 27.7-12.6 5.7-5.6 9.7-12.8 11.5-20.6h13.2c5.5 0 10-4.5 10-10s-4.5-10-10-10z" fill="#8063a0" opacity="1" data-original="#000000" class=""></path><path d="m429.9 232.25-46-67.1c-1.9-2.7-4.9-4.3-8.2-4.3s-6.4 1.6-8.2 4.3l-46.1 66.9c-3.1 4.6-2 10.8 2.6 14 1.7 1.1 3.6 1.8 5.6 1.8h33.5c-6.4 34-24.7 64.2-52.4 86.7s-62.3 35.4-95.2 35.4c-44.4 0-91.5-23.9-120-60.9-3.3-4.5-9.5-5.4-14-2.1-4.5 3.3-5.4 9.5-2.1 14 .1.1.2.2.3.4 32.7 42.4 84.7 68.7 135.8 68.7 37.4 0 76.7-14.5 107.8-39.9 32.3-26.3 53.4-62.2 60-102.2h38.4c5.6 0 10-4.6 10-10.1 0-2-.6-4-1.8-5.6zM352.4 110.75c-.1-.1-.2-.2-.3-.4-32.7-42.4-84.7-68.7-135.8-68.7-37.4 0-76.7 14.5-107.8 39.9-32.4 26.4-53.5 62.3-60.1 102.3H10c-5.6 0-10 4.6-10 10.1 0 2 .6 4 1.8 5.6l46.2 66.9c1.9 2.7 4.9 4.3 8.2 4.3s6.4-1.6 8.2-4.3l46.1-66.9c2.1-3 2.3-7 .6-10.3-1.7-3.3-5.1-5.4-8.9-5.4H68.7c6.4-34 24.7-64.2 52.4-86.7s62.3-35.4 95.2-35.4c44.4 0 91.5 23.9 120 60.9 3.3 4.5 9.5 5.4 14 2.1 4.5-3.3 5.4-9.5 2.1-14z" fill="#8063a0" opacity="1" data-original="#000000" class=""></path></g></svg>